<svg xmlns="http://www.w3.org/2000/svg" viewBox="0 0 270.16 148.6"><defs><style>.cls-1{fill:#1d1d1b;}.cls-2{fill:#e94e1b;}</style></defs><g id="Calque_2" data-name="Calque 2"><g id="Calque_1-2" data-name="Calque 1"><path class="cls-1" d="M63.46,30.64l3.36-9.19H78.7q-6.06,16-10.07,25.09-6.87,14.68-4.4,16.28,3.26,1.55,9.85-4.43A51.19,51.19,0,0,0,85.33,43.18q4.65-9.24,2-17.55A25.31,25.31,0,0,0,76.86,13.12Q69.29,8.31,58.35,8.31q-16.73,0-31.09,11.8T9.39,48.68Q5.81,65.47,15.11,77.26t26.07,11.8q20.3,0,36.53-17h9.63A67.47,67.47,0,0,1,65.83,90.41a54.72,54.72,0,0,1-26.41,6.85Q19.29,97.26,8.09,83T1.19,48.68A56.91,56.91,0,0,1,13.1,24.23,69.13,69.13,0,0,1,34.61,6.66,54.13,54.13,0,0,1,60.11.11q16.94,0,27,7.59t10.34,22A44.59,44.59,0,0,1,83.65,60.26Q70.72,73.06,57.58,73.38h-.34a24.46,24.46,0,0,1-4-.22,5,5,0,0,1-3.36-1.67q-1.18-1.41-.08-4.65-8.31,6.93-16.67,6.93-8.8,0-12.51-7.56t-.31-18.74A43.12,43.12,0,0,1,32.66,28.8Q41.18,21.24,50,21.23,60,21.23,63.46,30.64Zm-13.37.22q-4.67,0-10,4.81a33.74,33.74,0,0,0-8.31,12q-2.74,7.09-1.43,12t6.05,4.87q4.78,0,10.1-4.87a34.25,34.25,0,0,0,8.33-12q2.74-7.16,1.4-12C55.38,32.47,53.32,30.86,50.09,30.86Z"/><path class="cls-1" d="M138.8,17.9a18.26,18.26,0,0,1,6,10.38H133.12c-1.66-3.24-4-4.84-6.91-4.8s-5.83,1.4-8.66,4.07a20.21,20.21,0,0,0-5.72,10.78Q110.2,46,113.44,50a8.15,8.15,0,0,0,8.3,3q5-.94,9.42-7.65h11.11q-5.15,9.9-13.05,14a24.72,24.72,0,0,1-15.56,2.92A17.94,17.94,0,0,1,101.53,55Q97,48.85,99.28,38.33A30.84,30.84,0,0,1,109.6,21.07q8.19-7.14,17.63-7.13A17.25,17.25,0,0,1,138.8,17.9Z"/><path class="cls-1" d="M169.66,0l-3.23,15.08h9.76l-2.12,10H164.3q-1.43,6.7-2.49,11.36a96.3,96.3,0,0,0-2.23,11.2c-.2,2.16.36,3.22,1.7,3.21s3.66-.63,7-1.86l-.33,10.38q-9.28,4.66-16,2.23t-5.17-10.12l5.6-26.4h-6.13l2.12-10h6.13L157.11,2.7Z"/><path class="cls-1" d="M201.21,60.28,202.35,55q-10.17,6.87-19.13,5.7t-9.64-13.06l7.11-33.47h11.93l-5.84,27.42a11.26,11.26,0,0,0,.65,6.83q1.4,3.22,5.44,3.27,4,.29,11.85-7.81l6.21-29.42H223l-9.73,45.85Z"/><path class="cls-2" d="M97.43,97.19a46,46,0,0,0-15.64,1.88c1.06,2.82,2.35,5.17,3.06,7.64a21.51,21.51,0,0,1,.82,7.64c-1.06,11.76-5.64,21.52-14.34,29.28a23.85,23.85,0,0,1-5.41,3.52,7.73,7.73,0,0,1-3.76.94A7.77,7.77,0,0,1,54,143a34.49,34.49,0,0,1-2.58-14,57.38,57.38,0,0,1,3.41-17.87C59.92,96.13,66.74,82.37,76.38,70c1.41-1.65,2.82-3.41,4.35-4.94S83.44,63.92,85,66c2,2.71,1.88,4.94.11,7.41-2.94,4-5.41,8.35-8.11,12.34-.35.83-3.41,5.65-4.23,6.94C83.2,92,98.72,92.13,97.43,97.19ZM59.92,132a8.16,8.16,0,0,0,0,3.76A18.06,18.06,0,0,0,63,134.22c8.23-5.76,13.64-13.64,15.4-23.63.35-2.12,0-2.82-2.11-4.12a21,21,0,0,0-3.3-1.29c-1.41-.59-3-1.06-4.93-1.64C64.27,112.71,61,121.88,59.92,132Z"/><path class="cls-2" d="M142,96.25a6.9,6.9,0,0,1-3.77,3.29c-3.41,1.41-7.17,3.76-10.69,4.94-1.65.58-2.71,1.17-3.41,2.58A44.1,44.1,0,0,1,115,118.35a30.74,30.74,0,0,1-5.53,3.76c-6,2.82-11.29-.23-14.46-5.64-4.82-8.23-2.71-20,5.88-30.92,2.94-3.65,6.46-6.82,9.52-10.35a15.69,15.69,0,0,1,8.35-4.47c3.88-.82,6.7.47,8.93,3.65,5.41,7.76,3.3,14.93,1.18,21.87Zm-39.62,14c-1.3,10.46,9.87,1.41,14.57-4.82-4.35.58-10.46-4.24-11.75-8.47C103.66,100.71,102.84,106.71,102.37,110.24Zm17-28.81c-4.82,1.88-7.4,5.41-8.81,9.88a2.17,2.17,0,0,0,1.17,2.7c2.12,1.53,6.82,2.12,9.64,2.12C123.18,93.07,127.17,78.61,119.41,81.43Z"/><path class="cls-2" d="M186.08,96.25a6.91,6.91,0,0,1-3.76,3.29c-3.41,1.41-7.18,3.76-10.7,4.94-1.65.58-2.71,1.17-3.41,2.58A43.89,43.89,0,0,1,159,118.35a30.74,30.74,0,0,1-5.53,3.76c-6,2.82-11.29-.23-14.46-5.64-4.82-8.23-2.7-20,5.88-30.92,2.94-3.65,6.46-6.82,9.52-10.35a15.69,15.69,0,0,1,8.35-4.47c3.88-.82,6.7.47,8.93,3.65,5.41,7.76,3.3,14.93,1.18,21.87Zm-39.62,14c-1.3,10.46,9.87,1.41,14.58-4.82-4.35.58-10.47-4.24-11.76-8.47C147.75,100.71,146.93,106.71,146.46,110.24Zm17-28.81c-4.82,1.88-7.4,5.41-8.81,9.88a2.17,2.17,0,0,0,1.17,2.7c2.12,1.53,6.82,2.12,9.64,2.12C167.27,93.07,171.26,78.61,163.5,81.43Z"/><path class="cls-2" d="M217,78.38a126.46,126.46,0,0,1,9.29-22.22,56.83,56.83,0,0,1,8.46-12c.83-.82,1.77-1.76,2.71-2.58,3-2.71,4.11-2.24,6.11,1.29s1.29,6.23-.82,9.29c-14.58,21.51-24.93,44.79-30,70.3a40.38,40.38,0,0,0-.24,16.82c-2.58-2.94-2.94-5.88-3.17-8.7-.82-8.12.23-16.11,1.41-24.11a5.87,5.87,0,0,0-.12-2.82,26.24,26.24,0,0,1-1.53,2.47c-4,6.12-7.87,12.23-12.11,18.23a23.65,23.65,0,0,1-5.4,5.4c-4.47,3.41-10.35,1.06-11.88-4.11a43.79,43.79,0,0,1-.47-19.87,43.1,43.1,0,0,1,10.46-21c4.35-4.58,9.41-7.64,15.76-8.34,2.82-.36,5.76-.12,8,2a24.3,24.3,0,0,1,2.47,3.17C216.29,80.37,216.65,79.32,217,78.38ZM213.36,90.6c-2.94-.58-5.53.36-8,1.65-9.05,4.47-14.7,11.76-17.28,21.4-.24.94-.35,1.88-.59,2.94C194.54,114.23,211,97.54,213.36,90.6Z"/><path class="cls-2" d="M240.28,94.72c6.58-5.29,12.23-11.41,17.87-17.76,1.29-1.41,2.59-2.93,3.76-4.35a3.31,3.31,0,0,1,5.29,0,12.24,12.24,0,0,1,2.71,5.18,35,35,0,0,1-.94,13,256.42,256.42,0,0,1-9.06,30,59.84,59.84,0,0,1-12.58,20.46,47,47,0,0,1-6.46,5.52c-4.82,3.65-13.17,1.41-15.17-3.76-.7-2.12-1.29-4.23-1.88-6.58a22.17,22.17,0,0,1,1.88-13.17c1.18-2.24,2.71-4.24,5.53-4.82a2.54,2.54,0,0,1,.94-.12c.12,1.06-.59,1.65-1.18,2.47a14.11,14.11,0,0,0-2,11.05,11,11,0,0,0,.47,1.41c.83,1.53,1.41,1.76,3.06.94a34.77,34.77,0,0,0,8.82-6.47,62.41,62.41,0,0,0,13.4-22.1c1.41-4.11,2.71-8.35,4.12-12.58a9.24,9.24,0,0,0,.23-1.53A16.76,16.76,0,0,0,257,93.9c-4.59,4.58-8.94,9.4-13.64,13.75a24.88,24.88,0,0,1-5.76,4.12,8,8,0,0,1-6.59.82,6.58,6.58,0,0,1-4.11-3.76,19.12,19.12,0,0,1-.83-10.58c1.42-9.18,6.12-17.41,12.35-24.81a12.89,12.89,0,0,1,2.35-2,3.93,3.93,0,0,1,5.88,1.17c1.76,2.59,1.65,4.12-.59,6.59a12.44,12.44,0,0,0-2.23,2.7c-2.35,4.47-4.59,9.06-6.82,13.52a5.35,5.35,0,0,0-.59,1.77l.24.23C237.81,96.48,239.1,95.66,240.28,94.72Z"/></g></g></svg>